# xmcd
# 
# Track frame offsets:
#     150
#     13796
#     27540
#     40026
#     53929
#     69276
#     84561
#     98962
#     114374
#     127538
#     141734
#     158461
#     172906
#     188079
#     203354
#     214618
# 
# Disc length: 3037
# 
# Revision: 0
# Processed by: cddbd v1.5.2PL0 Copyright (c) Steve Scherf et al.
# Submitted via: BonkEnc v1.0.5
# 
DISCID=c90bdb10
DTITLE=あべ静江 - あべ静江/プレイバック・シリーズ
DYEAR=1987
DGENRE=Pop
TTITLE0=コーヒーショップで
TTITLE1=みずいろの手紙
TTITLE2=突然の愛
TTITLE3=透きとおった哀しみ
TTITLE4=秋日和
TTITLE5=生まれたままの姿で
TTITLE6=雨をみていた人
TTITLE7=私は小鳥
TTITLE8=心の音
TTITLE9=いたずら書き
TTITLE10=長距離電話
TTITLE11=モジリアンの少女
TTITLE12=愛の記念日
TTITLE13=もの想い
TTITLE14=恋人たちのいる舗道
TTITLE15=ひまわり
EXTD=
EXTT0=
EXTT1=
EXTT2=
EXTT3=
EXTT4=
EXTT5=
EXTT6=
EXTT7=
EXTT8=
EXTT9=
EXTT10=
EXTT11=
EXTT12=
EXTT13=
EXTT14=
EXTT15=
PLAYORDER=
